<svg width="341" height="72" viewBox="0 0 341 72" fill="none" xmlns="http://www.w3.org/2000/svg">
<path d="M83 42C85.71 39.75 87.86 37.91 89.42 36.47C90.9255 35.1175 92.2679 33.5938 93.42 31.93C94.4241 30.5973 94.9933 28.9876 95.05 27.32C95.1055 26.3683 94.826 25.4271 94.26 24.66C93.9369 24.3365 93.5497 24.0842 93.1234 23.9192C92.697 23.7542 92.2408 23.6801 91.7841 23.7018C91.3274 23.7234 90.8803 23.8403 90.4715 24.0449C90.0626 24.2496 89.7011 24.5374 89.41 24.89C88.7568 25.8763 88.4442 27.0494 88.52 28.23H81.65C81.6356 26.1647 82.1595 24.1313 83.17 22.33C84.0582 20.8132 85.3775 19.5949 86.96 18.83C88.5938 18.0694 90.378 17.6866 92.18 17.71C95.48 17.71 97.96 18.56 99.64 20.25C100.485 21.1244 101.144 22.161 101.577 23.297C102.01 24.4331 102.208 25.6451 102.16 26.86C102.149 29.8781 101.089 32.7984 99.16 35.12C96.8895 37.8937 94.2942 40.3848 91.43 42.54H102.66V48.32H81.73V43L83 42Z" fill="white"/>
<path d="M128.18 36.2299C129.339 37.7598 129.879 39.6699 129.694 41.5802C129.509 43.4905 128.611 45.2611 127.18 46.5399C125.135 48.0824 122.607 48.8447 120.05 48.6899H106.45V19.4899H119.59C122.085 19.3247 124.559 20.0317 126.59 21.4899C127.414 22.1494 128.072 22.9936 128.51 23.9542C128.948 24.9149 129.153 25.9651 129.11 27.0199C129.169 28.5598 128.692 30.0724 127.76 31.2999C126.839 32.4489 125.579 33.2782 124.16 33.6699C125.765 34.0103 127.193 34.9195 128.18 36.2299V36.2299ZM113.54 31.2999H118.2C119.159 31.3657 120.111 31.0933 120.89 30.5299C121.208 30.2494 121.456 29.8998 121.618 29.508C121.779 29.1162 121.848 28.6926 121.82 28.2699C121.848 27.8428 121.778 27.415 121.617 27.0184C121.456 26.6219 121.208 26.2668 120.89 25.9799C120.116 25.4047 119.162 25.1246 118.2 25.1899H113.54V31.2999ZM121.54 42.1399C121.876 41.851 122.14 41.4888 122.314 41.0813C122.487 40.6739 122.565 40.232 122.54 39.7899C122.567 39.3371 122.491 38.8842 122.318 38.465C122.145 38.0459 121.879 37.6714 121.54 37.3699C120.739 36.7506 119.741 36.4417 118.73 36.4999H113.57V42.9999H118.81C119.796 43.0415 120.765 42.7373 121.55 42.1399H121.54Z" fill="white"/>
<path d="M143.32 26.3299C144.527 24.113 146.337 22.2827 148.54 21.0499C150.861 19.7668 153.478 19.1151 156.13 19.1599C159.317 19.0713 162.445 20.0342 165.03 21.8999C167.524 23.7321 169.294 26.3836 170.03 29.3899H162.21C161.684 28.2342 160.823 27.2624 159.74 26.5999C158.636 25.957 157.377 25.6285 156.1 25.6499C155.099 25.6151 154.102 25.8013 153.181 26.1954C152.259 26.5894 151.436 27.1817 150.77 27.9299C149.453 29.6965 148.741 31.8413 148.741 34.0449C148.741 36.2485 149.453 38.3933 150.77 40.1599C151.434 40.9116 152.257 41.5068 153.178 41.9028C154.1 42.2987 155.098 42.4856 156.1 42.4499C157.382 42.4593 158.642 42.1131 159.74 41.4499C160.823 40.7914 161.684 39.823 162.21 38.6699H170C169.267 41.6691 167.495 44.3119 165 46.1299C162.41 47.9851 159.284 48.9405 156.1 48.8499C153.448 48.8947 150.831 48.243 148.51 46.9599C146.31 45.7321 144.501 43.9091 143.29 41.6999C142.061 39.3174 141.42 36.6756 141.42 33.9949C141.42 31.3142 142.061 28.6724 143.29 26.2899L143.32 26.3299Z" fill="white"/>
<path d="M178.78 47.5602C176.983 46.6145 175.495 45.1745 174.49 43.4102C173.459 41.4648 172.921 39.2967 172.921 37.0952C172.921 34.8937 173.459 32.7256 174.49 30.7802C175.509 29.0051 177.01 27.5556 178.82 26.6002C180.732 25.6467 182.839 25.1504 184.975 25.1504C187.111 25.1504 189.218 25.6467 191.13 26.6002C192.94 27.5556 194.441 29.0051 195.46 30.7802C196.538 32.7022 197.083 34.877 197.04 37.0802C197.086 39.2875 196.529 41.4655 195.43 43.3802C194.406 45.1612 192.893 46.6117 191.07 47.5602C189.162 48.5503 187.039 49.0519 184.89 49.0202C182.763 49.0538 180.662 48.5517 178.78 47.5602ZM188.38 41.3702C189.402 40.183 189.918 38.6434 189.82 37.0802C189.918 35.5287 189.421 33.9981 188.43 32.8002C187.988 32.3301 187.454 31.9555 186.861 31.6995C186.269 31.4434 185.63 31.3113 184.985 31.3113C184.34 31.3113 183.701 31.4434 183.109 31.6995C182.516 31.9555 181.982 32.3301 181.54 32.8002C180.552 34.0067 180.062 35.5447 180.17 37.1002C180.067 38.6488 180.549 40.1796 181.52 41.3902C181.941 41.8721 182.463 42.2555 183.049 42.513C183.635 42.7705 184.27 42.8959 184.91 42.8802C185.562 42.889 186.209 42.7589 186.807 42.4986C187.406 42.2382 187.942 41.8536 188.38 41.3702V41.3702Z" fill="white"/>
<path d="M221.49 27.8701C223.202 29.8886 224.072 32.488 223.92 35.1302V48.6902H216.85V36.0901C216.933 34.7737 216.503 33.4762 215.65 32.4702C214.772 31.6425 213.611 31.1815 212.405 31.1815C211.199 31.1815 210.038 31.6425 209.16 32.4702C208.3 33.4726 207.865 34.7718 207.95 36.0901V48.6902H200.84V25.4801H208V28.5601C208.745 27.5109 209.747 26.6707 210.91 26.1201C212.198 25.5141 213.607 25.2097 215.03 25.2301C216.233 25.1828 217.432 25.394 218.546 25.8494C219.661 26.3048 220.664 26.9939 221.49 27.8701V27.8701Z" fill="white"/>
<path d="M250.62 38.7901H234.53C234.553 40.0306 235.05 41.2152 235.92 42.1001C236.734 42.8558 237.81 43.2647 238.92 43.2401C239.694 43.2952 240.466 43.1082 241.129 42.7051C241.792 42.3019 242.313 41.7026 242.62 40.9901H250.19C249.808 42.5035 249.09 43.9116 248.09 45.1101C247.064 46.3507 245.768 47.3394 244.3 48.0001C242.688 48.6958 240.945 49.0368 239.19 49.0001C237.072 49.0421 234.978 48.5394 233.11 47.5401C231.352 46.5863 229.908 45.1453 228.95 43.3901C227.977 41.4237 227.47 39.2592 227.47 37.0651C227.47 34.871 227.977 32.7066 228.95 30.7401C229.897 28.9813 231.336 27.5359 233.09 26.5801C234.974 25.5852 237.08 25.0862 239.21 25.1301C241.297 25.0876 243.36 25.5726 245.21 26.5401C246.934 27.4494 248.358 28.8387 249.31 30.5401C250.326 32.4135 250.836 34.5194 250.79 36.6501C250.779 37.3663 250.722 38.0811 250.62 38.7901V38.7901ZM243.47 34.8401C243.493 34.2924 243.392 33.7466 243.176 33.2429C242.96 32.7392 242.633 32.2906 242.22 31.9301C241.35 31.1956 240.238 30.8107 239.1 30.8501C238.012 30.8104 236.946 31.1656 236.1 31.8501C235.234 32.6236 234.692 33.6947 234.58 34.8501L243.47 34.8401Z" fill="white"/>
<path d="M268.21 48.69L263.77 42.24L260 48.69H252.31L260 36.83L252.14 25.48H260.14L264.59 31.88L268.33 25.48H276L268.22 37.17L276.22 48.69H268.21Z" fill="white"/>
<path d="M279.46 22C279.087 21.6467 278.79 21.2211 278.587 20.7492C278.383 20.2772 278.279 19.7688 278.279 19.255C278.279 18.7412 278.383 18.2327 278.587 17.7608C278.79 17.2888 279.087 16.8632 279.46 16.51C280.295 15.7533 281.394 15.3547 282.52 15.4C283.626 15.3652 284.703 15.7634 285.52 16.51C285.893 16.8632 286.19 17.2888 286.393 17.7608C286.597 18.2327 286.701 18.7412 286.701 19.255C286.701 19.7688 286.597 20.2772 286.393 20.7492C286.19 21.2211 285.893 21.6467 285.52 22C284.699 22.7402 283.624 23.1343 282.52 23.1C281.396 23.1448 280.298 22.7502 279.46 22V22ZM286.06 25.51V48.72H278.94V25.48L286.06 25.51Z" fill="white"/>
<path d="M295.64 47.56C293.848 46.611 292.364 45.1716 291.36 43.41C290.287 41.4758 289.749 39.2911 289.8 37.08C289.752 34.8763 290.297 32.7001 291.38 30.78C292.392 29.0032 293.891 27.5528 295.7 26.6C297.613 25.6464 299.722 25.15 301.86 25.15C303.998 25.15 306.107 25.6464 308.02 26.6C309.829 27.5528 311.328 29.0032 312.34 30.78C313.418 32.702 313.963 34.8768 313.92 37.08C313.969 39.2864 313.416 41.4645 312.32 43.38C311.292 45.1617 309.776 46.6121 307.95 47.56C306.046 48.5516 303.926 49.0534 301.78 49.02C299.643 49.0569 297.531 48.5547 295.64 47.56ZM305.25 41.37C306.268 40.1812 306.781 38.6418 306.68 37.08C306.783 35.5278 306.285 33.9954 305.29 32.8C304.849 32.3302 304.316 31.9558 303.724 31.6998C303.132 31.4439 302.495 31.3118 301.85 31.3118C301.205 31.3118 300.568 31.4439 299.976 31.6998C299.384 31.9558 298.851 32.3302 298.41 32.8C297.418 34.004 296.927 35.5439 297.04 37.1C296.937 38.6486 297.419 40.1794 298.39 41.39C298.811 41.8719 299.333 42.2553 299.919 42.5128C300.505 42.7703 301.14 42.8957 301.78 42.88C302.432 42.8869 303.078 42.7559 303.676 42.4957C304.274 42.2355 304.811 41.8519 305.25 41.37V41.37ZM307.25 19.53L297.25 23.73V18.83L307.25 14V19.53Z" fill="white"/>
<path d="M338.35 27.87C340.069 29.8848 340.943 32.4859 340.79 35.13V48.69H333.72V36.09C333.805 34.7716 333.37 33.4724 332.51 32.47C331.632 31.6423 330.471 31.1813 329.265 31.1813C328.059 31.1813 326.898 31.6423 326.02 32.47C325.167 33.4761 324.737 34.7735 324.82 36.09V48.69H317.7V25.48H324.82V28.56C325.565 27.5108 326.567 26.6706 327.73 26.12C329.017 25.5129 330.427 25.2085 331.85 25.23C333.06 25.1762 334.267 25.3842 335.388 25.8398C336.51 26.2955 337.52 26.988 338.35 27.87V27.87Z" fill="white"/>
<path d="M31.78 22.3498C33.15 21.1398 34.02 19.9998 35.5 18.7098C26.5 -7.38018 0.75 -3.59018 0.5 22.8598C0.71 18.7998 4.84 13.9398 6.98 11.9198C14.76 4.52982 24.55 6.98982 28.64 17.1398C-18.08 60.4098 2.4 94.1398 33.42 49.1398C20.22 62.7298 -0.27 72.1398 11.14 48.1398C15.49 38.9998 26.89 27.4598 31.78 22.3498Z" fill="white"/>
<path d="M64.69 69.4C53.19 72.95 41.44 55.7901 38.13 49.1001C38.75 50.0001 57.88 68.02 63.13 61.87C65.44 59.15 63.29 54.1501 59.27 49.4401C56.74 46.4401 51.32 41.56 38.47 34.04C40.99 32.46 69.01 15.86 65.41 7.81005C60.5 0.660047 40.71 15 37.66 17.12C37.42 16.32 35.52 11.9401 35.52 11.9401C74.88 -18.1599 81.58 16.31 48.92 33.59C69.66 46.83 76.16 65.86 64.69 69.4Z" fill="white"/>
<path d="M39.2 37.0001C39.3943 39.7057 39.4277 42.4205 39.3 45.1301C39.0846 48.7338 38.4125 52.2956 37.3 55.7301C36.3421 58.5682 35.1271 61.3129 33.67 63.9301C32.24 66.2301 28.56 70.4601 26.03 71.4601C27.87 69.6201 29.17 66.8701 30.55 64.1301C30.84 63.5601 31.11 62.9801 31.37 62.3801C33.76 56.9101 34.66 50.3301 34.66 42.9601C34.6291 37.5746 34.0053 32.209 32.8 26.9601C34.18 25.9601 34.62 25.2001 37.1 23.3101C37.32 23.4101 38.75 30.0001 39.2 37.0001Z" fill="white"/>
</svg>
